<?xml version="1.0" encoding="UTF-8"?>
<!DOCTYPE svg PUBLIC "-//W3C//DTD SVG 1.1//EN" "http://www.w3.org/Graphics/SVG/1.1/DTD/svg11.dtd">
<!-- Creator: CorelDRAW 2018 (64 Bit Versão de avaliação) -->
<svg xmlns="http://www.w3.org/2000/svg" xml:space="preserve" width="210mm" height="210mm" version="1.1" style="shape-rendering:geometricPrecision; text-rendering:geometricPrecision; image-rendering:optimizeQuality; fill-rule:evenodd; clip-rule:evenodd"
viewBox="0 0 21000 21000"
 xmlns:xlink="http://www.w3.org/1999/xlink">
 <defs>
  <style type="text/css">
   <![CDATA[
    .fil0 {fill:white;fill-rule:nonzero}
   ]]>
  </style>
 </defs>
 <g id="Camada_x0020_1">
  <metadata id="CorelCorpID_0Corel-Layer"/>
  <g id="_2140050786080">
   <path class="fil0" d="M1856.7 10890.41c-371.06,-405.58 -343.08,-1035.2 62.5,-1406.26 405.58,-371.06 1035.2,-343.08 1406.26,62.5l5533.31 6056.36c371.06,405.58 343.08,1035.2 -62.5,1406.26 -405.58,371.06 -1035.2,343.08 -1406.26,-62.5l-5533.31 -6056.36z"/>
   <path class="fil0" d="M8900.48 16945.05c-364.59,412.05 -994.2,450.52 -1406.25,85.93 -412.05,-364.59 -450.52,-994.2 -85.93,-1406.25l10253.66 -11569.79c364.59,-412.05 994.2,-450.52 1406.25,-85.93 412.05,364.59 450.52,994.2 85.93,1406.25l-10253.66 11569.79z"/>
  </g>
 </g>
</svg>
