<?xml version="1.0" encoding="UTF-8"?>
<!DOCTYPE svg PUBLIC "-//W3C//DTD SVG 1.1//EN" "http://www.w3.org/Graphics/SVG/1.1/DTD/svg11.dtd">
<!-- Creator: CorelDRAW 2018 (64 Bit Versão de avaliação) -->
<svg xmlns="http://www.w3.org/2000/svg" xml:space="preserve" width="210mm" height="210mm" version="1.1" style="shape-rendering:geometricPrecision; text-rendering:geometricPrecision; image-rendering:optimizeQuality; fill-rule:evenodd; clip-rule:evenodd"
viewBox="0 0 21000 21000"
 xmlns:xlink="http://www.w3.org/1999/xlink">
 <defs>
  <style type="text/css">
   <![CDATA[
    .fil1 {fill:white}
    .fil0 {fill:white;fill-rule:nonzero}
   ]]>
  </style>
 </defs>
 <g id="Camada_x0020_1">
  <metadata id="CorelCorpID_0Corel-Layer"/>
  <g id="_1855361770016">
   <path class="fil0" d="M8238.97 2768.37c1506.13,0 2869.73,610.51 3856.78,1597.58 987.05,987.05 1597.58,2350.65 1597.58,3856.78 0,1506.13 -610.53,2869.73 -1597.58,3856.78 -987.05,987.07 -2350.65,1597.58 -3856.78,1597.58 -1506.13,0 -2869.73,-610.51 -3856.78,-1597.58 -987.07,-987.05 -1597.58,-2350.65 -1597.58,-3856.78 0,-1506.13 610.51,-2869.73 1597.58,-3856.78 987.05,-987.07 2350.65,-1597.58 3856.78,-1597.58zm3149.74 2304.62c-806.05,-806.06 -1919.66,-1304.62 -3149.74,-1304.62 -1230.08,0 -2343.69,498.56 -3149.74,1304.62 -806.06,806.05 -1304.62,1919.66 -1304.62,3149.74 0,1230.08 498.56,2343.69 1304.62,3149.74 806.05,806.06 1919.66,1304.62 3149.74,1304.62 1230.08,0 2343.69,-498.56 3149.74,-1304.62 806.05,-806.05 1304.62,-1919.66 1304.62,-3149.74 0,-1230.08 -498.57,-2343.69 -1304.62,-3149.74z"/>
   <path class="fil0" d="M11369.81 12446.58c-292.86,-292.86 -292.86,-767.68 0,-1060.54 292.86,-292.86 767.68,-292.86 1060.54,0l5565.39 5565.4c292.86,292.86 292.86,767.68 0,1060.54 -292.86,292.86 -767.68,292.86 -1060.54,0l-5565.39 -5565.4z"/>
   <path class="fil1" d="M11139.46 7747.49l345.51 69.6c53.47,10.77 104.27,-3.85 143.83,-41.41 39.57,-37.55 56.81,-87.53 48.83,-141.49 -0.27,-1.81 -0.53,-3.61 -0.8,-5.42 -291.2,-1948.35 -2106.88,-3291.87 -4055.25,-3000.67 -119.6,17.87 -236.93,41.51 -351.76,70.55 -44.65,11.31 -78.93,37.49 -101.57,77.62 -22.64,40.12 -27.33,83 -13.91,127.07l96.08 315.45c25.18,82.67 110.48,131.06 194.35,110.28 89.36,-22.14 180.58,-40.27 273.49,-54.16 1555.25,-232.44 3006.78,810.31 3293.71,2343.29 12.43,66.4 61.26,115.94 127.49,129.29z"/>
  </g>
 </g>
</svg>
