<?xml version="1.0" encoding="UTF-8"?>
<!DOCTYPE svg PUBLIC "-//W3C//DTD SVG 1.1//EN" "http://www.w3.org/Graphics/SVG/1.1/DTD/svg11.dtd">
<!-- Creator: CorelDRAW 2018 (64 Bit Versão de avaliação) -->
<svg xmlns="http://www.w3.org/2000/svg" xml:space="preserve" width="210mm" height="210mm" version="1.1" style="shape-rendering:geometricPrecision; text-rendering:geometricPrecision; image-rendering:optimizeQuality; fill-rule:evenodd; clip-rule:evenodd"
viewBox="0 0 21000 21000"
 xmlns:xlink="http://www.w3.org/1999/xlink">
 <defs>
  <style type="text/css">
   <![CDATA[
    .fil0 {fill:#006666;fill-rule:nonzero}
   ]]>
  </style>
 </defs>
 <g id="Camada_x0020_1">
  <metadata id="CorelCorpID_0Corel-Layer"/>
  <path class="fil0" d="M10500 1465.66c2494.69,0 4753.26,1011.24 6388.18,2646.16 1634.92,1634.92 2646.16,3893.49 2646.16,6388.18 0,2494.69 -1011.24,4753.26 -2646.16,6388.18 -1634.92,1634.92 -3893.49,2646.16 -6388.18,2646.16 -2494.69,0 -4753.26,-1011.24 -6388.18,-2646.16 -1634.92,-1634.92 -2646.16,-3893.49 -2646.16,-6388.18 0,-2494.69 1011.24,-4753.26 2646.16,-6388.18 1634.92,-1634.92 3893.49,-2646.16 6388.18,-2646.16zm5327.64 3706.7c-1363.4,-1363.4 -3247.01,-2206.7 -5327.64,-2206.7 -2080.63,0 -3964.24,843.3 -5327.64,2206.7 -1363.4,1363.4 -2206.7,3247.01 -2206.7,5327.64 0,2080.63 843.3,3964.24 2206.7,5327.64 1363.4,1363.4 3247.01,2206.7 5327.64,2206.7 2080.63,0 3964.24,-843.3 5327.64,-2206.7 1363.4,-1363.4 2206.7,-3247.01 2206.7,-5327.64 0,-2080.63 -843.3,-3964.24 -2206.7,-5327.64z"/>
  <path class="fil0" d="M9750 6131.77c0,-287.83 335.79,-521.16 750,-521.16 414.21,0 750,233.33 750,521.16l0 8736.47c0,287.82 -335.79,521.16 -750,521.16 -414.21,0 -750,-233.34 -750,-521.16l0 -8736.47z"/>
  <path class="fil0" d="M14868.23 9750c287.83,0 521.16,335.79 521.16,750 0,414.21 -233.33,750 -521.16,750l-8736.47 0c-287.82,0 -521.16,-335.79 -521.16,-750 0,-414.21 233.34,-750 521.16,-750l8736.47 0z"/>
 </g>
</svg>
